<?xml version="1.0" encoding="UTF-8"?>
<svg version="1.1" xmlns="http://www.w3.org/2000/svg" width="1531" height="277">
<path d="M0 0 C3.35041773 3.39794138 6.1192349 7.20352778 9 11 C48.84610319 57.87350685 107.02704199 84.98246956 167.890625 90.58984375 C230.67207403 95.36752271 294.63252132 77.22494537 343 36.3125 C354.28830698 26.52208974 365.15852107 15.9115446 374.3359375 4.1015625 C378.16512311 -0.73435735 378.16512311 -0.73435735 381.75 -1.875 C386.96008905 -2.07538804 390.34718522 -0.38609578 394.26159668 2.89663696 C396.89009832 5.37738513 399.4446621 7.9166912 401.984375 10.48828125 C402.930597 11.43434802 403.87748804 12.37974607 404.82501221 13.32450867 C406.80138267 15.29950016 408.7706462 17.28123338 410.73486328 19.26831055 C413.24354584 21.80539559 415.76751074 24.32659317 418.29677963 26.84313679 C420.25161522 28.79099344 422.19897433 30.74618852 424.14411163 32.70372581 C425.52026499 34.08654239 426.90189754 35.46389926 428.28363037 36.84114075 C429.12170227 37.69189682 429.95977417 38.54265289 430.82324219 39.41918945 C431.92741486 40.5314666 431.92741486 40.5314666 433.05389404 41.66621399 C437.63710997 47.16244361 438.68403371 52.07006009 438.4609375 59.0546875 C437.69542269 63.9461974 435.35580596 66.50221764 432 70 C430.69997533 71.44045943 429.39995929 72.88092665 428.10009766 74.3215332 C426.68003773 75.88320644 425.24479861 77.4294712 423.8046875 78.97265625 C421.25591113 81.70845887 418.78232671 84.50510181 416.3125 87.3125 C413.10845724 90.87947858 409.79513356 94.09460386 406.12890625 97.1796875 C403.70090762 99.25573771 401.39224363 101.439328 399.0625 103.625 C381.11356207 119.92430989 360.43685249 133.73544704 339 145 C338.37383789 145.33161133 337.74767578 145.66322266 337.10253906 146.00488281 C303.54822926 163.64967348 267.52726451 174.83717771 230 180 C229.15453613 180.11859375 228.30907227 180.2371875 227.43798828 180.359375 C146.23893742 191.16661647 61.32291155 167.62370204 -3.68359375 118.35546875 C-9.63443696 113.76953389 -15.3631628 108.96448214 -21 104 C-22.16208984 103.00419922 -22.16208984 103.00419922 -23.34765625 101.98828125 C-60.11404057 69.88864211 -60.11404057 69.88864211 -61.23828125 58.609375 C-61.26277344 57.66578125 -61.28726563 56.7221875 -61.3125 55.75 C-61.36857422 54.35007812 -61.36857422 54.35007812 -61.42578125 52.921875 C-60.59462675 47.21817253 -56.42266797 43.17135323 -52.47851562 39.20385742 C-51.1469342 37.85797798 -51.1469342 37.85797798 -49.78845215 36.48490906 C-48.82804764 35.52476588 -47.86730549 34.56496033 -46.90625 33.60546875 C-45.91241967 32.60774646 -44.91881163 31.60980271 -43.92541504 30.61164856 C-41.8509586 28.52976137 -39.77270991 26.45175144 -37.69189453 24.3762207 C-35.02692675 21.71707051 -32.37355254 19.04667204 -29.72309113 16.37307262 C-27.67797967 14.31323605 -25.62599052 12.26036085 -23.57194519 10.20943642 C-22.59040634 9.22738463 -21.61122491 8.24297071 -20.63447571 7.25615501 C-19.27066029 5.88000532 -17.89629558 4.51433461 -16.52148438 3.14916992 C-15.74301147 2.3700676 -14.96453857 1.59096527 -14.16247559 0.78825378 C-9.77551992 -2.83952825 -4.96824395 -2.64268295 0 0 Z " fill="#ED1B46" transform="translate(955,48)"/>
<path d="M0 0 C3.3959188 0.12488044 6.78438231 0.16392842 10.18237305 0.1875 C12.37061326 0.22418577 14.5587791 0.26569088 16.74682617 0.3125 C17.74609634 0.32949951 18.74536652 0.34649902 19.7749176 0.36401367 C32.20086701 0.86067941 42.07696236 5.35598326 50.58666992 14.375 C55.95432167 20.95658933 58.47336961 29.50301459 58.45019531 37.9152832 C58.45011978 38.83586014 58.45004425 39.75643707 58.44996643 40.70491028 C58.44480515 41.6852977 58.43964386 42.66568512 58.43432617 43.67578125 C58.43220375 45.19669624 58.43220375 45.19669624 58.43003845 46.74833679 C58.4244532 49.97808821 58.41190337 53.20776962 58.39916992 56.4375 C58.39415302 58.63085837 58.38959044 60.82421783 58.38549805 63.01757812 C58.3744886 68.38674253 58.35776512 73.75586626 58.33666992 79.125 C65.83001497 79.04057239 73.3231657 78.94567962 80.81620407 78.83747292 C84.29564181 78.78755436 87.77504985 78.74122418 91.25463867 78.703125 C95.25613439 78.65915337 99.25726409 78.59952029 103.25854492 78.5390625 C105.13059601 78.52173569 105.13059601 78.52173569 107.04046631 78.50405884 C108.2013678 78.48418915 109.36226929 78.46431946 110.55834961 78.44384766 C111.57983093 78.43052399 112.60131226 78.41720032 113.65374756 78.4034729 C116.38893676 78.11957498 118.0417632 77.61559851 120.33666992 76.125 C121.48798342 73.822373 121.47852465 72.46890445 121.51025391 69.90649414 C121.53048866 68.59987572 121.53048866 68.59987572 121.5511322 67.26686096 C121.56157059 66.32414841 121.57200897 65.38143585 121.58276367 64.41015625 C121.61569638 62.4251257 121.64890812 60.44009977 121.68237305 58.45507812 C121.72984377 55.31684489 121.77428069 52.17863113 121.81347656 49.0402832 C121.8531214 46.01754271 121.90467943 42.99518635 121.95776367 39.97265625 C121.96617783 39.03196793 121.97459198 38.0912796 121.98326111 37.12208557 C121.99990311 36.24785446 122.0165451 35.37362335 122.03369141 34.47290039 C122.04399887 33.70393936 122.05430634 32.93497833 122.06492615 32.14271545 C122.33666992 30.125 122.33666992 30.125 124.33666992 27.125 C126.64331055 26.75268555 126.64331055 26.75268555 129.49291992 26.76171875 C130.51514648 26.76236328 131.53737305 26.76300781 132.59057617 26.76367188 C133.66178711 26.77978516 134.73299805 26.79589844 135.83666992 26.8125 C137.44348633 26.80766602 137.44348633 26.80766602 139.08276367 26.80273438 C147.06979988 26.85812996 147.06979988 26.85812996 149.33666992 29.125 C149.60409546 30.99986267 149.60409546 30.99986267 149.62719727 33.30834961 C149.63995697 34.17362778 149.65271667 35.03890594 149.66586304 35.93040466 C149.66920151 37.33963951 149.66920151 37.33963951 149.67260742 38.77734375 C149.67926422 39.74724747 149.68592102 40.71715118 149.69277954 41.71644592 C149.70292416 43.77684633 149.707596 45.83727972 149.70727539 47.89770508 C149.71160947 51.0189631 149.7478005 54.13876173 149.78588867 57.25976562 C149.89879786 76.80612424 149.89879786 76.80612424 145.33666992 85.125 C144.75788086 86.19234375 144.1790918 87.2596875 143.58276367 88.359375 C136.49632758 98.21610252 128.07490866 103.39713561 116.33666992 106.125 C112.70950468 106.53395994 109.12137345 106.59296742 105.47338867 106.59375 C104.47837845 106.60136353 103.48336823 106.60897705 102.45820618 106.61682129 C100.37336724 106.62754862 98.28847489 106.63050571 96.20361328 106.62597656 C93.01464525 106.62499707 89.82803038 106.66685173 86.6394043 106.7109375 C84.60490407 106.71614013 82.57039555 106.71883277 80.53588867 106.71875 C79.5868718 106.73514526 78.63785492 106.75154053 77.66007996 106.76843262 C73.03606969 106.71999363 71.02235303 106.67459798 67.31176758 103.70043945 C66.65998535 102.85054443 66.00820313 102.00064941 65.33666992 101.125 C64.74241211 100.53074219 64.1481543 99.93648438 63.53588867 99.32421875 C62.13614909 97.92447917 60.73640951 96.52473958 59.33666992 95.125 C59.18198242 97.0121875 59.18198242 97.0121875 59.02416992 98.9375 C58.82582082 101.35735902 58.60690726 102.74914257 57.1816864 104.73139954 C54.53514263 106.73041942 52.59799261 106.48561657 49.3046875 106.46557617 C47.44309746 106.46523628 47.44309746 106.46523628 45.54389954 106.46488953 C44.18966309 106.44956968 42.83543031 106.4339217 41.48120117 106.41796875 C40.09543822 106.41237251 38.70966933 106.40810254 37.32389832 106.40510559 C33.67904229 106.39365883 30.03454569 106.36419358 26.38983154 106.33099365 C22.66968651 106.30028885 18.94948331 106.28659941 15.22924805 106.27148438 C7.93155826 106.23932331 0.63416448 106.18812951 -6.66333008 106.125 C-6.72586472 106.88366867 -6.78839935 107.64233734 -6.85282898 108.42399597 C-6.9381337 109.41740494 -7.02343842 110.4108139 -7.11132812 111.43432617 C-7.19448776 112.41986984 -7.2776474 113.40541351 -7.36332703 114.42082214 C-8.44046036 124.1299237 -14.06886917 132.33202935 -21.37426758 138.515625 C-28.30401635 143.38773506 -36.09696251 145.23439686 -44.42871094 145.30200195 C-45.10091675 145.30857315 -45.77312256 145.31514435 -46.46569824 145.32191467 C-48.68652477 145.3415911 -50.90728354 145.35330322 -53.12817383 145.36328125 C-54.27330035 145.36939454 -54.27330035 145.36939454 -55.44156075 145.37563133 C-59.48952078 145.39647712 -63.53744717 145.41078015 -67.58544922 145.42016602 C-71.7342513 145.43117267 -75.88250846 145.46550923 -80.03111935 145.50533772 C-83.24767436 145.53170067 -86.46410402 145.53987554 -89.68075752 145.54344749 C-91.20793868 145.54827005 -92.73511592 145.55975768 -94.26218987 145.57848549 C-106.79565139 145.72252784 -118.87455089 144.59726349 -128.79223633 136.1171875 C-138.63520242 125.63720273 -138.81653209 111.95461042 -138.86645508 98.41796875 C-138.87500519 96.61444695 -138.87500519 96.61444695 -138.88372803 94.77449036 C-138.89313646 92.24558381 -138.89969538 89.71666523 -138.90356445 87.18774414 C-138.91334169 83.30789319 -138.94443315 79.42855659 -138.97583008 75.54882812 C-138.98235393 73.0885448 -138.98760682 70.62825771 -138.99145508 68.16796875 C-139.00380188 67.00549118 -139.01614868 65.84301361 -139.02886963 64.64530945 C-139.02586853 63.57021622 -139.02286743 62.49512299 -139.01977539 61.38745117 C-139.02524384 59.96803474 -139.02524384 59.96803474 -139.03082275 58.51994324 C-138.59676473 55.69119482 -137.94418233 54.80322665 -135.66333008 53.125 C-133.33496094 52.75268555 -133.33496094 52.75268555 -130.62817383 52.76171875 C-129.65428711 52.76236328 -128.68040039 52.76300781 -127.67700195 52.76367188 C-126.66186523 52.77978516 -125.64672852 52.79589844 -124.60083008 52.8125 C-123.58182617 52.80927734 -122.56282227 52.80605469 -121.51293945 52.80273438 C-113.93032148 52.85800859 -113.93032148 52.85800859 -111.66333008 55.125 C-111.41177368 57.54049683 -111.41177368 57.54049683 -111.40795898 60.61279297 C-111.40100006 61.76093475 -111.39404114 62.90907654 -111.38687134 64.0920105 C-111.38786835 65.33781891 -111.38886536 66.58362732 -111.38989258 67.8671875 C-111.3696038 70.48568136 -111.34875302 73.10417091 -111.32739258 75.72265625 C-111.30263112 79.8660459 -111.2874737 84.00937267 -111.2824707 88.15283203 C-111.27649346 92.1411814 -111.23922382 96.12900213 -111.20239258 100.1171875 C-111.20743805 101.35894745 -111.21248352 102.6007074 -111.21768188 103.88009644 C-111.20441864 105.03454254 -111.1911554 106.18898865 -111.17749023 107.37841797 C-111.1746402 108.39386688 -111.17179016 109.4093158 -111.16885376 110.45553589 C-110.50781855 113.94619286 -109.56444151 115.09199879 -106.66333008 117.125 C-103.54100709 117.71042408 -103.54100709 117.71042408 -100.01464844 117.5949707 C-99.35564041 117.5971611 -98.69663239 117.5993515 -98.01765442 117.60160828 C-95.84564532 117.60391439 -93.6750015 117.57769509 -91.50317383 117.55078125 C-89.99150523 117.54585605 -88.47983053 117.54255801 -86.96815491 117.54081726 C-83.80311544 117.53318266 -80.63852908 117.51263845 -77.47363281 117.48168945 C-73.41597172 117.44208116 -69.35860505 117.42407434 -65.30077267 117.41438007 C-61.43069983 117.40440796 -57.5606988 117.38452438 -53.69067383 117.36328125 C-52.95177351 117.3598855 -52.21287319 117.35648975 -51.45158195 117.3529911 C-49.36184016 117.34141481 -47.27228413 117.3228943 -45.18261719 117.30200195 C-43.39868813 117.28723564 -43.39868813 117.28723564 -41.57872009 117.27217102 C-38.59850466 117.25227835 -38.59850466 117.25227835 -35.66333008 116.125 C-35.00333008 112.825 -34.34333008 109.525 -33.66333008 106.125 C-35.28883789 106.14820313 -36.9143457 106.17140625 -38.58911133 106.1953125 C-40.71801299 106.21406934 -42.84691962 106.23226963 -44.97583008 106.25 C-46.04768555 106.26675781 -47.11954102 106.28351563 -48.22387695 106.30078125 C-49.2519043 106.30722656 -50.27993164 106.31367188 -51.33911133 106.3203125 C-52.2869751 106.33078613 -53.23483887 106.34125977 -54.21142578 106.35205078 C-56.66333008 106.125 -56.66333008 106.125 -59.66333008 104.125 C-60.93197172 100.31907507 -60.8865308 96.71629359 -60.91333008 92.75 C-60.93395508 91.99460937 -60.95458008 91.23921875 -60.97583008 90.4609375 C-60.98356445 89.35492188 -60.98356445 89.35492188 -60.99145508 88.2265625 C-61.00080078 87.55963379 -61.01014648 86.89270508 -61.01977539 86.20556641 C-60.49194906 83.12465132 -59.68517194 81.54506041 -57.66333008 79.125 C-54.63947037 78.63880111 -52.17718861 78.49118726 -49.15283203 78.55737305 C-48.28432617 78.55664291 -47.41582031 78.55591278 -46.52099609 78.55516052 C-43.6472348 78.55864696 -40.77508979 78.59755738 -37.90161133 78.63671875 C-35.91050604 78.64604313 -33.91938929 78.65316101 -31.92826843 78.65815735 C-26.68529641 78.67725662 -21.44301597 78.72638293 -16.20031738 78.78167725 C-10.85149492 78.83280644 -5.5025608 78.85565787 -0.15356445 78.88085938 C10.34348435 78.9344986 20.84001965 79.01984704 31.33666992 79.125 C31.26969371 72.64676171 31.17989672 66.16912806 31.07421875 59.69140625 C31.04096204 57.48770333 31.01293246 55.28391509 30.99023438 53.08007812 C30.95670255 49.91239045 30.90438657 46.74548531 30.84838867 43.578125 C30.83880379 42.09980194 30.83880379 42.09980194 30.82902527 40.59161377 C30.80923111 39.6709613 30.78943695 38.75030884 30.76904297 37.80175781 C30.75793991 36.9934552 30.74683685 36.18515259 30.73539734 35.35235596 C30.22044792 32.47576506 29.45383894 31.14442301 27.33666992 29.125 C24.72361507 28.5207546 24.72361507 28.5207546 21.71948242 28.61083984 C20.56818848 28.5975766 19.41689453 28.58431335 18.23071289 28.57064819 C16.36503662 28.5782164 16.36503662 28.5782164 14.46166992 28.5859375 C12.54765381 28.56824814 12.54765381 28.56824814 10.5949707 28.55020142 C7.2027272 28.52082472 3.81125757 28.50744622 0.41894531 28.50335693 C-4.36137712 28.49565035 -9.14146702 28.46735986 -13.92163086 28.42837524 C-16.46681778 28.40866925 -19.01211066 28.39941847 -21.55737305 28.40145874 C-23.28431396 28.39102036 -23.28431396 28.39102036 -25.04614258 28.38037109 C-26.56812256 28.37848282 -26.56812256 28.37848282 -28.12084961 28.3765564 C-30.66333008 28.125 -30.66333008 28.125 -33.66333008 26.125 C-35.24870762 20.3206123 -34.76368347 15.09474673 -31.82788086 9.83935547 C-23.26522317 -0.95194494 -12.94071995 -0.4796676 0 0 Z " fill="#ED1F49" transform="translate(561.663330078125,84.875)"/>
<path d="M0 0 C1.27681641 0.00386719 2.55363281 0.00773437 3.86914062 0.01171875 C5.18462891 0.03621094 6.50011719 0.06070313 7.85546875 0.0859375 C9.20377351 0.08885486 10.55208274 0.09017065 11.90039062 0.08984375 C21.76193476 0.17990351 21.76193476 0.17990351 24.04296875 2.4609375 C24.50390625 4.76171875 24.50390625 4.76171875 24.04296875 7.4609375 C22.2911137 9.4204867 20.66769908 10.98461353 18.66796875 12.6484375 C17.55936455 13.61378401 16.4526236 14.581274 15.34765625 15.55078125 C14.51186035 16.2775708 14.51186035 16.2775708 13.65917969 17.01904297 C11.26909258 19.15134727 9.03441655 21.42410213 6.79296875 23.7109375 C3.27036834 27.27884467 -0.34213223 30.65087408 -4.16796875 33.890625 C-6.18839809 35.66401495 -8.07323779 37.54394944 -9.95703125 39.4609375 C-8.32507813 39.48220703 -8.32507813 39.48220703 -6.66015625 39.50390625 C6.55746198 39.85400186 16.90481841 42.26023379 26.77734375 51.71875 C33.38034815 59.71066222 37.13688491 68.94896732 37.2199707 79.29321289 C37.2265419 79.97172806 37.2331131 80.65024323 37.23988342 81.34931946 C37.25953279 83.58574545 37.27125581 85.82210479 37.28125 88.05859375 C37.28532553 88.82346037 37.28940105 89.58832699 37.29360008 90.37637138 C37.31441797 94.41928713 37.32874215 98.46216929 37.33813477 102.50512695 C37.3492335 106.68405354 37.38368456 110.86245266 37.42330647 115.04119205 C37.44940428 118.25391146 37.4578201 121.46650329 37.46141624 124.67931938 C37.46629437 126.22034738 37.47794321 127.76136924 37.49645424 129.30229378 C37.52071815 131.45464724 37.51990603 133.60560926 37.51293945 135.75805664 C37.51880569 136.98287247 37.52467194 138.20768829 37.53071594 139.46961975 C37.04296875 142.4609375 37.04296875 142.4609375 35.31315994 144.124506 C32.69783062 145.66411575 31.24580613 145.83576294 28.23216248 145.8351593 C26.78369682 145.84568077 26.78369682 145.84568077 25.30596924 145.85641479 C24.25294617 145.84877106 23.1999231 145.84112732 22.11499023 145.83325195 C21.00066116 145.83690262 19.88633209 145.84055328 18.73823547 145.84431458 C15.04669036 145.85243323 11.3555826 145.83879251 7.6640625 145.82421875 C5.09538269 145.82370005 2.52670249 145.82421814 -0.04197693 145.82572937 C-5.4330788 145.82563957 -10.82402073 145.81553837 -16.21508789 145.79711914 C-22.42365161 145.77602649 -28.63203022 145.77242558 -34.84062248 145.7786811 C-40.83245097 145.78440663 -46.82419818 145.77858116 -52.81602287 145.76750755 C-55.35519081 145.76367218 -57.89436428 145.7625004 -60.43353462 145.7640934 C-63.99689194 145.76446692 -67.55997514 145.7517611 -71.12329102 145.7355957 C-72.16214447 145.73807312 -73.20099792 145.74055054 -74.27133179 145.74310303 C-87.42679312 145.64851649 -98.92179567 143.37224984 -108.83203125 134.1484375 C-117.18486101 125.11456167 -120.10986012 114.53247785 -120.10229492 102.48364258 C-120.10565353 101.70729965 -120.10901215 100.93095673 -120.11247253 100.13108826 C-120.12192422 97.58086523 -120.1239222 95.03070817 -120.125 92.48046875 C-120.12821477 90.70261102 -120.131579 88.92475354 -120.13508606 87.14689636 C-120.1410615 83.42906073 -120.1429274 79.7112483 -120.14233398 75.9934082 C-120.14223203 71.22506879 -120.15592559 66.45687717 -120.17310619 61.68857288 C-120.18420732 58.02120781 -120.18625384 54.3538788 -120.18572426 50.68649864 C-120.18690563 48.92779719 -120.1913362 47.16909483 -120.19905663 45.41040993 C-120.20882574 42.95684933 -120.20599163 40.50361438 -120.19995117 38.05004883 C-120.20838043 36.95827835 -120.20838043 36.95827835 -120.21697998 35.8444519 C-120.19383984 32.15600229 -120.06109503 30.61703317 -117.95703125 27.4609375 C-115.65039062 27.07275391 -115.65039062 27.07275391 -112.80078125 27.0625 C-111.26744141 27.05669922 -111.26744141 27.05669922 -109.703125 27.05078125 C-108.63191406 27.06238281 -107.56070312 27.07398437 -106.45703125 27.0859375 C-104.85021484 27.06853516 -104.85021484 27.06853516 -103.2109375 27.05078125 C-101.67759766 27.05658203 -101.67759766 27.05658203 -100.11328125 27.0625 C-99.17291016 27.06588379 -98.23253906 27.06926758 -97.26367188 27.07275391 C-96.50248047 27.20085449 -95.74128906 27.32895508 -94.95703125 27.4609375 C-92.47563985 31.18302461 -92.66435961 34.06434811 -92.66992188 38.37304688 C-92.66308884 39.17821243 -92.6562558 39.98337799 -92.6492157 40.8129425 C-92.63562619 42.56116441 -92.62657387 44.3094261 -92.62150574 46.05769348 C-92.61322671 48.82290553 -92.59273182 51.58778575 -92.56896973 54.35290527 C-92.51251366 61.21992016 -92.47733259 68.0870156 -92.44134521 74.9541626 C-92.41012804 80.75687666 -92.3709553 86.55943009 -92.3210907 92.36201477 C-92.30098798 95.08914312 -92.29269601 97.81614787 -92.28479004 100.54333496 C-92.27182022 102.21183729 -92.25830029 103.88033547 -92.24414062 105.54882812 C-92.24512253 106.30944046 -92.24610443 107.0700528 -92.24711609 107.85371399 C-92.20275005 111.59771594 -92.0878867 113.26465432 -89.95703125 116.4609375 C-87.26367719 117.35872219 -85.67991391 117.59410674 -82.91377258 117.61915588 C-82.09347565 117.6289447 -81.27317871 117.63873352 -80.42802429 117.64881897 C-79.53178848 117.65457443 -78.63555267 117.6603299 -77.7121582 117.66625977 C-76.76562378 117.67615936 -75.81908936 117.68605896 -74.84387207 117.69625854 C-71.71104444 117.72787989 -68.57820164 117.75263356 -65.4453125 117.77734375 C-63.27483218 117.79791272 -61.10435588 117.81890918 -58.93388367 117.84031677 C-53.21779629 117.89554327 -47.50167272 117.94495005 -41.78552246 117.99316406 C-35.95398738 118.04337483 -30.12250492 118.09906312 -24.29101562 118.15429688 C-12.84639911 118.26188554 -1.40173693 118.36332898 10.04296875 118.4609375 C9.97404738 112.42822308 9.88605793 106.3961988 9.78051758 100.36401367 C9.74729792 98.31265934 9.71925678 96.26121425 9.6965332 94.2097168 C9.66293305 91.25790801 9.61061399 88.30692864 9.5546875 85.35546875 C9.54510262 83.98331963 9.54510262 83.98331963 9.5353241 82.58345032 C9.42511112 77.79214359 9.29585992 74.26021454 6.04296875 70.4609375 C2.73979188 68.06272782 -0.41000221 68.20453326 -4.40625 68.18969727 C-5.71440674 68.17951065 -7.02256348 68.16932404 -8.37036133 68.15882874 C-9.06674713 68.15788774 -9.76313293 68.15694675 -10.48062134 68.15597725 C-12.66654362 68.15230679 -14.85201497 68.13556326 -17.0378418 68.11521912 C-23.25072855 68.05986422 -29.46368069 68.02910087 -35.67675781 68.00463867 C-39.48108963 67.988759 -43.28509911 67.95853971 -47.08926392 67.91987419 C-48.53728819 67.90823135 -49.98537009 67.9022939 -51.43344116 67.90219307 C-53.45827687 67.9020009 -55.48308203 67.88221767 -57.5078125 67.86157227 C-58.65934814 67.85650162 -59.81088379 67.85143097 -60.99731445 67.84620667 C-64.32539322 67.41298747 -65.75944171 67.0067405 -67.95703125 64.4609375 C-68.50990295 61.62185669 -68.50990295 61.62185669 -67.95703125 58.4609375 C-66.39590751 56.32171095 -64.98923396 54.70027819 -63.11108398 52.88623047 C-62.33791084 52.10451477 -62.33791084 52.10451477 -61.54911804 51.30700684 C-59.84392352 49.59071334 -58.11810949 47.89695838 -56.390625 46.203125 C-55.19560707 45.01168586 -54.0016987 43.81913287 -52.80885315 42.6255188 C-50.30514471 40.12650144 -47.79168853 37.63787689 -45.27026367 35.15673828 C-42.04940791 31.9867141 -38.84851624 28.79743738 -35.65412807 25.60076714 C-33.18847597 23.13593393 -30.71505682 20.67902122 -28.23900032 18.22464371 C-27.05677485 17.05192212 -25.87632012 15.87741252 -24.69772148 14.70104599 C-23.04209879 13.05198227 -21.37692973 11.41319367 -19.70874023 9.77685547 C-19.22896729 9.29572296 -18.74919434 8.81459045 -18.25488281 8.31887817 C-12.80881092 3.02298772 -7.75394508 -0.05466941 0 0 Z " fill="#ED214A" transform="translate(373.95703125,45.5390625)"/>
<path d="M0 0 C0.94198242 -0.01591187 1.88396484 -0.03182373 2.85449219 -0.04821777 C4.37478027 -0.0485199 4.37478027 -0.0485199 5.92578125 -0.04882812 C7.50601074 -0.06024841 7.50601074 -0.06024841 9.11816406 -0.07189941 C11.35072463 -0.08270585 13.58333578 -0.08555133 15.81591797 -0.08105469 C19.19847606 -0.08008948 22.57871107 -0.12155814 25.9609375 -0.16601562 C47.00598064 -0.28253438 47.00598064 -0.28253438 56.23828125 5.41992188 C57.00825439 5.8863208 57.77822754 6.35271973 58.5715332 6.83325195 C66.12539215 11.69615929 71.0876594 19.5578038 73.73046875 28.02148438 C75.42905076 36.04401785 75.42144437 43.9992414 75.42578125 52.16992188 C75.43802734 53.36875 75.45027344 54.56757813 75.46289062 55.80273438 C75.48691499 70.56970943 73.66788668 83.47710466 63.23828125 94.60351562 C52.83632964 104.05060058 40.20505845 105.8902962 26.61328125 105.85351562 C24.88839478 105.8613784 24.88839478 105.8613784 23.12866211 105.86940002 C20.72201338 105.87577348 18.31533329 105.87454461 15.90869141 105.8659668 C12.21982406 105.85737891 8.53246797 105.88640988 4.84375 105.91796875 C2.49609421 105.91957906 0.14843569 105.91900649 -2.19921875 105.91601562 C-3.30023926 105.9272496 -4.40125977 105.93848358 -5.53564453 105.95005798 C-6.55770996 105.94067703 -7.57977539 105.93129608 -8.6328125 105.92163086 C-9.5292749 105.92146469 -10.4257373 105.92129852 -11.34936523 105.92112732 C-14.53359647 105.2595518 -15.7406755 103.91113406 -17.76171875 101.41992188 C-18.26342773 99.17749023 -18.26342773 99.17749023 -18.2578125 96.75976562 C-18.25845703 95.88384766 -18.25910156 95.00792969 -18.25976562 94.10546875 C-18.23978516 93.19861328 -18.21980469 92.29175781 -18.19921875 91.35742188 C-18.20630859 90.44669922 -18.21339844 89.53597656 -18.22070312 88.59765625 C-18.1570688 81.9552112 -18.1570688 81.9552112 -16.57408142 79.81190491 C-14.09635974 77.90889366 -12.46625525 78.04171464 -9.35986328 78.03515625 C-8.25506622 78.02504517 -7.15026917 78.01493408 -6.01199341 78.0045166 C-4.8182309 78.00753784 -3.62446838 78.01055908 -2.39453125 78.01367188 C-1.16765594 78.00283569 0.05921936 77.99199951 1.32327271 77.98083496 C5.253329 77.94648542 9.18309436 77.93096307 13.11328125 77.91992188 C18.2776247 77.90537443 23.44131601 77.87171241 28.60546875 77.82617188 C29.7951828 77.82919312 30.98489685 77.83221436 32.21066284 77.83532715 C33.87731491 77.82016052 33.87731491 77.82016052 35.57763672 77.8046875 C36.55231903 77.80263306 37.52700134 77.80057861 38.53121948 77.79846191 C41.73089256 77.35103793 43.6312561 76.29663441 46.23828125 74.41992188 C47.97281675 70.78241348 47.40036146 66.30468419 47.40625 62.33007812 C47.4095784 61.54853867 47.4129068 60.76699921 47.41633606 59.96177673 C47.42138947 58.31184476 47.42374488 56.6619026 47.42358398 55.01196289 C47.42577051 52.49478245 47.44394284 49.97804047 47.46289062 47.4609375 C47.46582492 45.8548192 47.46780947 44.24869883 47.46875 42.64257812 C47.47952827 41.51892601 47.47952827 41.51892601 47.49052429 40.37257385 C47.47281025 36.29930093 47.19688483 33.03272527 45.23828125 29.41992188 C42.64343316 28.12249783 40.74796873 28.28822604 37.84228516 28.27807617 C36.15010361 28.26752449 36.15010361 28.26752449 34.42373657 28.25675964 C33.19980194 28.25259537 31.97586731 28.24843109 30.71484375 28.24414062 C28.14191887 28.22094594 25.56900217 28.19682875 22.99609375 28.171875 C18.92512999 28.13545273 14.85431831 28.10570923 10.78320312 28.09399414 C6.86429864 28.08197745 2.94602064 28.0383769 -0.97265625 27.99414062 C-2.8024855 27.99700325 -2.8024855 27.99700325 -4.66928101 27.99992371 C-6.37091904 27.9751873 -6.37091904 27.9751873 -8.10693359 27.94995117 C-9.10461761 27.94408493 -10.10230164 27.93821869 -11.13021851 27.93217468 C-14.47272831 27.28151541 -15.65720761 26.04132082 -17.76171875 23.41992188 C-18.87046143 19.92830127 -18.69243874 16.946596 -17.76171875 13.41992188 C-13.58989695 7.27060451 -7.89466631 0.08052637 0 0 Z " fill="#ED204A" transform="translate(740.76171875,85.580078125)"/>
<path d="M0 0 C0.97388672 0.00386719 1.94777344 0.00773437 2.95117188 0.01171875 C3.96630859 0.03621094 4.98144531 0.06070313 6.02734375 0.0859375 C7.55584961 0.08787109 7.55584961 0.08787109 9.11523438 0.08984375 C16.68403389 0.18012764 16.68403389 0.18012764 18.96484375 2.4609375 C19.17382154 5.07777438 19.25849668 7.58966839 19.25537109 10.20849609 C19.26208832 11.00881256 19.26880554 11.80912903 19.27572632 12.63369751 C19.29479319 15.2923192 19.2986364 17.95068908 19.30078125 20.609375 C19.30720871 22.4610708 19.31393703 24.31276557 19.32095337 26.16445923 C19.33295173 30.05676624 19.33663213 33.94898439 19.33544922 37.84130859 C19.33524715 42.80186648 19.3624207 47.76184418 19.39699364 52.72226524 C19.41937391 56.55386911 19.42328319 60.38533655 19.42222977 64.21699905 C19.42457396 66.0436361 19.43333011 67.87027759 19.4488945 69.69684982 C19.56052416 84.16559201 18.53900301 96.52940109 7.96484375 107.4609375 C-1.4969009 116.79306921 -13.00242629 118.96897636 -25.95120239 118.99107361 C-27.39846446 118.98060328 -28.84572027 118.96923536 -30.29296875 118.95703125 C-31.81419951 118.95718664 -33.33543067 118.95868226 -34.85665894 118.96144104 C-38.01497298 118.96281311 -41.17282619 118.95045537 -44.33105469 118.92749023 C-48.37855771 118.89886313 -52.42531105 118.90192426 -56.47287178 118.91458035 C-59.60070221 118.9215243 -62.72835864 118.91376714 -65.85616684 118.90132332 C-67.34970305 118.89681339 -68.84325793 118.89646802 -70.33679581 118.90038872 C-72.41388893 118.90329465 -74.48993392 118.88683476 -76.56689453 118.86499023 C-78.33675217 118.85688576 -78.33675217 118.85688576 -80.1423645 118.84861755 C-83.03515625 118.4609375 -83.03515625 118.4609375 -84.90792847 117.08900452 C-87.44405233 113.42605398 -86.753658 108.6600502 -86.03515625 104.4609375 C-84.48453243 101.55214318 -82.5110178 99.6073302 -80.03515625 97.4609375 C-79.62703201 96.98015747 -79.21890778 96.49937744 -78.79841614 96.00402832 C-75.06351745 92.04855071 -72.11059359 91.02032126 -66.68847656 90.7355957 C-64.16348055 90.71498696 -61.6381011 90.72546528 -59.11328125 90.76171875 C-57.76282622 90.75808055 -56.4123763 90.75137194 -55.06195068 90.741745 C-51.52498192 90.72275645 -47.98900061 90.73664314 -44.4520874 90.76025391 C-38.77809263 90.79477445 -33.10433443 90.78886283 -27.43032074 90.7641201 C-25.45215052 90.76175034 -23.47399139 90.78042971 -21.49591064 90.7993927 C-20.29746521 90.79896469 -19.09901978 90.79853668 -17.86425781 90.7980957 C-16.28043304 90.80858696 -16.28043304 90.80858696 -14.66461182 90.81929016 C-12.07325906 90.62912899 -12.07325906 90.62912899 -10.19488525 89.43338013 C-8.35868974 86.31041753 -8.62187011 83.08575465 -8.65039062 79.56469727 C-8.64501785 78.761138 -8.63964508 77.95757874 -8.6341095 77.12966919 C-8.62432504 75.38471952 -8.62138937 73.63972117 -8.62446594 71.89474678 C-8.62893698 69.13336524 -8.61496425 66.37262696 -8.59606934 63.61131287 C-8.55925205 57.74869831 -8.54557151 51.88615067 -8.53515625 46.0234375 C-8.52308626 39.23371987 -8.50158208 32.44431464 -8.45515442 25.65473747 C-8.44156261 22.93364652 -8.44575915 20.21294826 -8.45056152 17.49183655 C-8.44122163 15.82341 -8.43105299 14.15498782 -8.41992188 12.48657227 C-8.4260701 11.72955521 -8.43221832 10.97253815 -8.43855286 10.19258118 C-8.40124091 7.01055274 -8.22138516 4.7947841 -6.65663147 1.98970032 C-4.42287735 -0.11633264 -3.03704558 -0.02794071 0 0 Z " fill="#ED2049" transform="translate(223.03515625,72.5390625)"/>
<path d="M0 0 C1.59424805 -0.04930664 1.59424805 -0.04930664 3.22070312 -0.09960938 C4.23970703 -0.10669922 5.25871094 -0.11378906 6.30859375 -0.12109375 C7.71129517 -0.14127563 7.71129517 -0.14127563 9.14233398 -0.16186523 C11.5625 0.4375 11.5625 0.4375 13.15771484 2.38647461 C15.03814857 6.47055181 16.69450191 10.61089071 18.29296875 14.8125 C18.64708328 15.73224609 19.00119781 16.65199219 19.36604309 17.59960938 C20.49840881 20.54391245 21.62427351 23.49065299 22.75 26.4375 C23.48720869 28.35693278 24.22483527 30.27620512 24.96289062 32.1953125 C26.43466231 36.02337531 27.89797248 39.85453883 29.35693359 43.6875 C30.83986784 47.57512315 32.35618856 51.44745496 33.89697266 55.3125 C34.26937576 56.25802734 34.64177887 57.20355469 35.02546692 58.17773438 C35.72958119 59.96405976 36.44262977 61.74690007 37.16630554 63.52539062 C39.02859412 68.28501181 40.25391128 72.23788618 39.5625 77.4375 C36.35435112 79.57626592 35.4747927 79.69326428 31.78125 79.703125 C30.85699219 79.70570313 29.93273437 79.70828125 28.98046875 79.7109375 C28.01753906 79.70320313 27.05460937 79.69546875 26.0625 79.6875 C24.61810547 79.69910156 24.61810547 79.69910156 23.14453125 79.7109375 C22.22027344 79.70835937 21.29601562 79.70578125 20.34375 79.703125 C19.49876953 79.70086914 18.65378906 79.69861328 17.78320312 79.69628906 C15.5625 79.4375 15.5625 79.4375 12.5625 77.4375 C11.61691284 75.65011597 11.61691284 75.65011597 10.80419922 73.46044922 C10.49284531 72.63636063 10.18149139 71.81227203 9.86070251 70.96321106 C9.53284256 70.06527328 9.2049826 69.16733551 8.8671875 68.2421875 C8.51793716 67.31004929 8.16868683 66.37791107 7.80885315 65.41752625 C6.67551503 62.38598 5.55617273 59.34948521 4.4375 56.3125 C3.668851 54.24441245 2.89940111 52.17662239 2.12915039 50.10913086 C0.98691319 47.04140678 -0.15414068 43.97327733 -1.29081726 40.90348816 C-3.34278762 35.36212384 -5.42131611 29.83322646 -7.55859375 24.32421875 C-7.98317871 23.22287598 -8.40776367 22.1215332 -8.84521484 20.98681641 C-9.58993218 19.06062784 -10.34108778 17.13691015 -11.10009766 15.21630859 C-12.77182545 10.84819114 -14.07747512 7.1968552 -13.4375 2.4375 C-9.92777725 -1.07222275 -4.75356949 0.02585023 0 0 Z " fill="#ED224B" transform="translate(150.4375,72.5625)"/>
<path d="M0 0 C0.93106567 -0.00945648 1.86213135 -0.01891296 2.82141113 -0.02865601 C4.32617004 -0.01954697 4.32617004 -0.01954697 5.86132812 -0.01025391 C7.4091095 -0.01455917 7.4091095 -0.01455917 8.98815918 -0.01895142 C11.17033436 -0.02099342 13.35252778 -0.01545411 15.53466797 -0.00292969 C18.87964713 0.01312154 22.22341791 -0.00277432 25.56835938 -0.02197266 C27.68685163 -0.01999025 29.80534314 -0.01614663 31.92382812 -0.01025391 C32.92700073 -0.0163266 33.93017334 -0.02239929 34.96374512 -0.02865601 C36.36034363 -0.01447128 36.36034363 -0.01447128 37.78515625 0 C38.60439575 0.00238678 39.42363525 0.00477356 40.2677002 0.00723267 C42.89800025 0.47879634 43.78528736 1.28915573 45.39257812 3.38818359 C45.78076172 5.60888672 45.78076172 5.60888672 45.79101562 8.16943359 C45.79681641 9.55582031 45.79681641 9.55582031 45.80273438 10.97021484 C45.79113281 11.93314453 45.77953125 12.89607422 45.76757812 13.88818359 C45.77917969 14.85111328 45.79078125 15.81404297 45.80273438 16.80615234 C45.79886719 17.73041016 45.795 18.65466797 45.79101562 19.60693359 C45.78763184 20.45191406 45.78424805 21.29689453 45.78076172 22.16748047 C45.29668181 24.93678288 44.58432164 25.66647052 42.39257812 27.38818359 C40.2677002 27.76913452 40.2677002 27.76913452 37.78515625 27.77636719 C36.85409058 27.78582367 35.9230249 27.79528015 34.96374512 27.80502319 C33.96057251 27.7989505 32.9573999 27.79287781 31.92382812 27.78662109 C30.37604675 27.79092636 30.37604675 27.79092636 28.79699707 27.7953186 C26.61482189 27.7973606 24.43262847 27.7918213 22.25048828 27.77929688 C18.90550912 27.76324564 15.56173834 27.7791415 12.21679688 27.79833984 C10.09830462 27.79635744 7.97981311 27.79251382 5.86132812 27.78662109 C4.35656921 27.79573013 4.35656921 27.79573013 2.82141113 27.80502319 C1.42481262 27.79083847 1.42481262 27.79083847 0 27.77636719 C-1.22885925 27.77278702 -1.22885925 27.77278702 -2.48254395 27.76913452 C-5.112844 27.29757085 -6.00013111 26.48721146 -7.60742188 24.38818359 C-7.99560547 22.16748047 -7.99560547 22.16748047 -8.00585938 19.60693359 C-8.00972656 18.68267578 -8.01359375 17.75841797 -8.01757812 16.80615234 C-8.00597656 15.84322266 -7.994375 14.88029297 -7.98242188 13.88818359 C-7.99402344 12.92525391 -8.005625 11.96232422 -8.01757812 10.97021484 C-8.01371094 10.04595703 -8.00984375 9.12169922 -8.00585938 8.16943359 C-8.00247559 7.32445312 -7.9990918 6.47947266 -7.99560547 5.60888672 C-7.18250351 0.95732985 -4.3709916 0.01273449 0 0 Z " fill="#ED2049" transform="translate(665.607421875,202.61181640625)"/>
<path d="M0 0 C1.01900391 0.00322266 2.03800781 0.00644531 3.08789062 0.00976562 C4.10302734 -0.00634766 5.11816406 -0.02246094 6.1640625 -0.0390625 C7.62489258 -0.0400293 7.62489258 -0.0400293 9.11523438 -0.04101562 C10.45509399 -0.04548706 10.45509399 -0.04548706 11.82202148 -0.05004883 C14.15039062 0.32226562 14.15039062 0.32226562 15.94018555 1.54614258 C17.51230233 3.85341504 17.53769216 5.32270652 17.54882812 8.10351562 C17.55462891 9.48990234 17.55462891 9.48990234 17.56054688 10.90429688 C17.54894531 11.86722656 17.53734375 12.83015625 17.52539062 13.82226562 C17.53699219 14.78519531 17.54859375 15.748125 17.56054688 16.74023438 C17.55667969 17.66449219 17.5528125 18.58875 17.54882812 19.54101562 C17.54544434 20.38599609 17.54206055 21.23097656 17.53857422 22.1015625 C17.15039062 24.32226562 17.15039062 24.32226562 15.94018555 26.09838867 C13.55718484 27.72790477 11.98942112 27.69513873 9.11523438 27.68554688 C8.14134766 27.68490234 7.16746094 27.68425781 6.1640625 27.68359375 C5.14892578 27.66748047 4.13378906 27.65136719 3.08789062 27.63476562 C1.55938477 27.63959961 1.55938477 27.63959961 0 27.64453125 C-7.58261797 27.58925703 -7.58261797 27.58925703 -9.84960938 25.32226562 C-10.10839844 23.015625 -10.10839844 23.015625 -10.11523438 20.16601562 C-10.1178125 19.14378906 -10.12039063 18.1215625 -10.12304688 17.06835938 C-10.11144531 15.46154297 -10.11144531 15.46154297 -10.09960938 13.82226562 C-10.10734375 12.75105469 -10.11507812 11.67984375 -10.12304688 10.57617188 C-10.12046875 9.55394531 -10.11789062 8.53171875 -10.11523438 7.47851562 C-10.11297852 6.53814453 -10.11072266 5.59777344 -10.10839844 4.62890625 C-9.46305454 -1.12317785 -4.54678164 0.0331442 0 0 Z " fill="#ED254D" transform="translate(602.849609375,202.677734375)"/>
<path d="M0 0 C1.33519067 0.01120734 2.67040621 0.01974026 4.00563049 0.02572632 C7.49972085 0.04850538 10.99228614 0.10732745 14.48577881 0.1739502 C18.05866876 0.23561315 21.63180808 0.26279203 25.20507812 0.29296875 C32.20114262 0.35708654 39.19620098 0.45932875 46.19140625 0.5859375 C46.19140625 0.9159375 46.19140625 1.2459375 46.19140625 1.5859375 C45.47889709 1.57181824 44.76638794 1.55769897 44.0322876 1.54315186 C37.26640062 1.41993005 30.50215072 1.35575449 23.73521805 1.35534286 C20.25691266 1.35311678 16.78173924 1.32930542 13.30419922 1.25341797 C-3.96898792 0.09354217 -3.96898792 0.09354217 -19.10333252 6.68560791 C-23.55938293 11.43912258 -26.13798237 16.12834067 -26.01171875 22.8203125 C-25.9446875 23.40296875 -25.87765625 23.985625 -25.80859375 24.5859375 C-26.13859375 24.5859375 -26.46859375 24.5859375 -26.80859375 24.5859375 C-27.71412608 15.31261564 -27.71412608 15.31261564 -25.71875 11.5078125 C-24.17029772 9.68417109 -22.61882506 8.15527697 -20.80859375 6.5859375 C-20.39915527 6.10384323 -19.9897168 5.62174896 -19.56787109 5.12504578 C-13.92536936 -0.85001713 -7.79036681 -0.18902316 0 0 Z " fill="#F68CA1" transform="translate(163.80859375,163.4140625)"/>
<path d="M0 0 C0.66 0 1.32 0 2 0 C1.67657623 0.50106262 1.35315247 1.00212524 1.01992798 1.51837158 C-0.36856263 4.89676478 -0.30812453 8.11050657 -0.31884766 11.70605469 C-0.32889328 12.47717087 -0.3389389 13.24828705 -0.34928894 14.04277039 C-0.38012357 16.58579784 -0.39715674 19.12871999 -0.4140625 21.671875 C-0.43277393 23.4373668 -0.45234733 25.20284966 -0.4727478 26.96832275 C-0.52407764 31.61084724 -0.56369881 36.25340073 -0.60089111 40.89605713 C-0.6409254 45.63520486 -0.69202038 50.37423187 -0.7421875 55.11328125 C-0.83895687 64.40876938 -0.92335846 73.70432565 -1 83 C-1.33 83 -1.66 83 -2 83 C-2.04629934 72.62112664 -2.08185697 62.24227777 -2.10362434 51.86332226 C-2.11407052 47.04417974 -2.12824492 42.22510777 -2.15087891 37.40600586 C-2.17257757 32.75706092 -2.18456234 28.10818393 -2.18975449 23.45919228 C-2.1934556 21.68373863 -2.20068277 19.90828879 -2.21146011 18.132864 C-2.22593551 15.6499357 -2.22797961 13.16728974 -2.22705078 10.68432617 C-2.23424133 9.94705292 -2.24143188 9.20977966 -2.24884033 8.45016479 C-2.2337768 4.73948648 -2.11565568 3.17348352 0 0 Z " fill="#FAC5D0" transform="translate(256,73)"/>
<path d="M0 0 C0.66 0 1.32 0 2 0 C1.67657623 0.57111511 1.35315247 1.14223022 1.01992798 1.73065186 C-0.05967747 4.13278286 -0.27161392 5.6959703 -0.31884766 8.30957031 C-0.33871735 9.15013977 -0.35858704 9.99070923 -0.37905884 10.85675049 C-0.39061005 11.75480408 -0.40216125 12.65285767 -0.4140625 13.578125 C-0.43342865 14.5046991 -0.4527948 15.43127319 -0.4727478 16.38592529 C-0.53244767 19.34052371 -0.57889068 22.29516129 -0.625 25.25 C-0.6631886 27.25522517 -0.70224085 29.26043409 -0.7421875 31.265625 C-0.8381414 36.17695111 -0.92220803 41.088354 -1 46 C-1.33 46 -1.66 46 -2 46 C-2.0493933 39.93108308 -2.08571643 33.86228287 -2.10986328 27.79321289 C-2.11992835 25.728088 -2.13358154 23.66297737 -2.15087891 21.59790039 C-2.17510493 18.63163736 -2.18647797 15.66556256 -2.1953125 12.69921875 C-2.20563507 11.7741301 -2.21595764 10.84904144 -2.22659302 9.8959198 C-2.22674408 9.03525406 -2.22689514 8.17458832 -2.22705078 7.2878418 C-2.231492 6.53061325 -2.23593323 5.7733847 -2.24050903 4.99320984 C-2 3 -2 3 0 0 Z " fill="#F5879D" transform="translate(686,112)"/>
<path d="M0 0 C0.66 0.33 1.32 0.66 2 1 C0.60974609 2.25103516 0.60974609 2.25103516 -0.80859375 3.52734375 C-2.01927728 4.66294613 -3.2288549 5.79972833 -4.4375 6.9375 C-5.04916016 7.48212891 -5.66082031 8.02675781 -6.29101562 8.58789062 C-10.47584579 12.58775592 -11.75943041 15.4797722 -12.01196289 21.27954102 C-12.00801514 21.84729248 -12.00406738 22.41504395 -12 23 C-12.33 23 -12.66 23 -13 23 C-13.8453249 18.09502836 -13.97305395 14.45448107 -11.13671875 10.21484375 C-7.69758485 6.39295845 -4.19009188 2.98880407 0 0 Z " fill="#F47D95" transform="translate(736,86)"/>
<path d="M0 0 C0.66 0.33 1.32 0.66 2 1 C1.21753906 1.67804688 0.43507812 2.35609375 -0.37109375 3.0546875 C-7.39528542 9.13297078 -7.39528542 9.13297078 -10.1875 17.6875 C-10.20450424 20.0838195 -10.20450424 20.0838195 -10 22 C-10.33 22 -10.66 22 -11 22 C-11.90964778 12.68453292 -11.90964778 12.68453292 -9.83984375 8.8515625 C-6.94774808 5.46389033 -3.58685554 2.63739378 0 0 Z " fill="#F25D7B" transform="translate(148,166)"/>
<path d="M0 0 C0.66 0 1.32 0 2 0 C1.67854004 0.53463867 1.35708008 1.06927734 1.02587891 1.62011719 C-0.23716252 4.55018092 -0.32033241 6.8913019 -0.4140625 10.078125 C-0.45273438 11.23828125 -0.49140625 12.3984375 -0.53125 13.59375 C-0.5621875 14.8003125 -0.593125 16.006875 -0.625 17.25 C-0.66367188 18.47203125 -0.70234375 19.6940625 -0.7421875 20.953125 C-0.83642108 23.9685994 -0.92203455 26.98406828 -1 30 C-1.33 30 -1.66 30 -2 30 C-2.05793591 25.56255461 -2.09357467 21.12520611 -2.125 16.6875 C-2.14175781 15.42486328 -2.15851563 14.16222656 -2.17578125 12.86132812 C-2.18222656 11.65283203 -2.18867188 10.44433594 -2.1953125 9.19921875 C-2.20578613 8.08377686 -2.21625977 6.96833496 -2.22705078 5.8190918 C-2 3 -2 3 0 0 Z " fill="#F5879D" transform="translate(256,73)"/>
</svg>
